<svg xmlns="http://www.w3.org/2000/svg" xmlns:xlink="http://www.w3.org/1999/xlink" width="50" height="55" viewBox="0 0 50 55"><defs><path id="a" d="M179.648 620.312l-9.376 14.986-.124.194a3.75 3.75 0 0 1-5.166 1.186 3.804 3.804 0 0 1-1.009-.92l-6.068-8.033a2.795 2.795 0 0 1 3.927-3.927l4.494 3.397 8.846-10.191a2.778 2.778 0 0 1 4.459 3.308zm3.91-19.992h-2.901c.148.8.225 1.61.23 2.424v4.334a5.59 5.59 0 0 1-5.573 5.627h-16.348a5.59 5.59 0 0 1-5.573-5.627v-4.334a13.79 13.79 0 0 1 .23-2.424h-2.901a6.6 6.6 0 0 0-6.582 6.582v32.836a6.6 6.6 0 0 0 6.582 6.582h32.836a6.6 6.6 0 0 0 6.582-6.582v-32.836a6.6 6.6 0 0 0-6.582-6.582z"/><path id="b" d="M158.966 609.152h16.33a1.999 1.999 0 0 0 2.035-1.945V603c-.126-5.504-4.683-9.868-10.191-9.76-5.514-.118-10.083 4.25-10.208 9.76v4.155a1.997 1.997 0 0 0 2.034 1.998z"/><path id="c" d="M167.14 598.547a3.536 3.536 0 0 1 3.538 3.533 3.536 3.536 0 0 1-3.538 3.534 3.536 3.536 0 0 1-3.538-3.534 3.536 3.536 0 0 1 3.538-3.533z"/></defs><use fill="#469839" xlink:href="#a" transform="translate(-141 -593)"/><use fill="#44c52f" xlink:href="#b" transform="translate(-141 -593)"/><use fill="#fff" xlink:href="#c" transform="translate(-141 -593)"/></svg>