<svg xmlns="http://www.w3.org/2000/svg" xmlns:xlink="http://www.w3.org/1999/xlink" width="37" height="44" viewBox="0 0 37 44"><defs><path id="a" d="M232.733 344.829v-3.835a2.769 2.769 0 0 0-2.77-2.768h-16.615a2.77 2.77 0 0 0-2.77 2.768v3.835a17.994 17.994 0 0 0 0 28.322v3.835a2.769 2.769 0 0 0 2.77 2.768h16.616a2.77 2.77 0 0 0 2.769-2.768v-3.835a17.994 17.994 0 0 0 0-28.322z"/><path id="b" d="M221.67 371.476c-6.884 0-12.466-5.581-12.466-12.466 0-6.885 5.582-12.467 12.467-12.467 6.885 0 12.466 5.582 12.466 12.467 0 6.885-5.581 12.466-12.466 12.466z"/><path id="c" d="M226.654 355.82h-2.077v-2.768a2.768 2.768 0 0 0-2.769-2.766 2.768 2.768 0 0 0-2.77 2.766v5.534a2.768 2.768 0 0 0 2.77 2.767h4.846a2.768 2.768 0 0 0 0-5.533z"/></defs><use fill="#f5a623" xlink:href="#a" transform="rotate(2 9773.859 -5653.076)"/><use fill="#fff4e2" xlink:href="#b" transform="rotate(2 9773.859 -5653.076)"/><use fill="#ab7b2c" xlink:href="#c" transform="rotate(2 9773.859 -5653.076)"/></svg>