<svg xmlns="http://www.w3.org/2000/svg" xmlns:xlink="http://www.w3.org/1999/xlink" width="68" height="52" viewBox="0 0 68 52"><defs><path id="a" d="M1297.618 545.884a5.462 5.462 0 0 1-5.452-5.452 1.298 1.298 0 1 1 2.596 0 2.856 2.856 0 0 0 2.856 2.856 1.298 1.298 0 1 1 0 2.596zm-3.116-10.644h-16.615c-1.147 0-2.077.93-2.077 2.077v27c0 1.147.93 2.077 2.077 2.077h22.846c1.147 0 2.077-.93 2.077-2.077v-20.77c0-3.115-5.192-8.307-8.308-8.307z"/><path id="b" d="M1270.357 540.232a7.283 7.283 0 0 1-7.27-7.269 1.73 1.73 0 1 1 3.462 0 3.808 3.808 0 0 0 3.808 3.808 1.73 1.73 0 1 1 0 3.461zm-4.154-14.192h-22.154a2.77 2.77 0 0 0-2.769 2.77v36a2.77 2.77 0 0 0 2.77 2.768h30.46a2.77 2.77 0 0 0 2.77-2.769v-27.692c0-4.154-6.923-11.077-11.077-11.077z"/></defs><use fill="#ffbf08" xlink:href="#a" transform="rotate(-1 -29064.755 71167.08)"/><text dominant-baseline="text-before-edge" font-family="Helvetica, Arial, sans-serif" transform="rotate(-1 1576.947 -2557.245)" fill="#fff" font-size="19"><tspan>2</tspan></text><g><use fill="#ff9808" xlink:href="#b" transform="rotate(13 2918.602 -5143.005)"/><text dominant-baseline="text-before-edge" font-family="Helvetica, Arial, sans-serif" transform="rotate(13 -68.88 86.715)" fill="#fff" font-size="25"><tspan>1</tspan></text></g></svg>