<svg xmlns="http://www.w3.org/2000/svg" xmlns:xlink="http://www.w3.org/1999/xlink" width="54" height="54" viewBox="0 0 54 54"><defs><path id="a" d="M1215.405 345.098a4 4 0 0 1 4.204-3.785l41.942 2.198a4 4 0 0 1 3.785 4.204l-2.04 38.947a4 4 0 0 1-4.205 3.785l-41.942-2.198a4 4 0 0 1-3.785-4.204z"/><path id="e" d="M1242.382 363.77l-4.394-.154.02-.566c.137-3.913 2.769-5.874 6.812-5.733 4.07.142 6.713 2.504 6.59 6.012-.1 2.914-2.13 4.626-4.24 6.282l-4.024 3.182 7.736.27-.13 3.75-13.397-.467.121-3.48 7.689-6.865c1.003-.91 1.625-1.726 1.663-2.805.046-1.323-.845-2.083-2.112-2.127-1.536-.054-2.27.839-2.322 2.35zm-8.465 12.456l-4.584-.16.498-14.274-4.117 1.18.141-4.048 4.92-1.72 3.801.134z"/><path id="f" d="M1225.35 341.38a3 3 0 0 1 6 0v2a3 3 0 0 1-6 0z"/><path id="g" d="M1249.35 342.38a3 3 0 0 1 6 0v2a3 3 0 0 1-6 0z"/><mask id="c" width="2" height="2" x="-1" y="-1"><path fill="#fff" d="M1213 340h54v52h-54z"/><use xlink:href="#a"/></mask><filter id="b" width="74" height="74" x="1203" y="330" filterUnits="userSpaceOnUse"><feOffset dy="2" in="SourceGraphic" result="FeOffset1178Out"/><feGaussianBlur in="FeOffset1178Out" result="FeGaussianBlur1179Out" stdDeviation="0 0"/></filter><clipPath id="d"><use fill="#fff" xlink:href="#a"/></clipPath></defs><g transform="rotate(-3 -5820.35 23356.8)"><g filter="url(#b)"><use fill="none" stroke-width="0" mask="url(&quot;#c&quot;)" xlink:href="#a"/><use fill="#0086e4" xlink:href="#a"/></g><use fill="#ecf7ff" xlink:href="#a"/><use fill="#fff" fill-opacity="0" stroke="#0899ff" stroke-miterlimit="50" stroke-width="4" clip-path="url(&quot;#d&quot;)" xlink:href="#a"/></g><use fill="#0162a7" xlink:href="#e" transform="rotate(-3 -5820.35 23356.8)"/><use fill="#0899ff" xlink:href="#f" transform="rotate(-3 -5820.35 23356.8)"/><use fill="#0899ff" xlink:href="#g" transform="rotate(-3 -5820.35 23356.8)"/></svg>