<svg xmlns="http://www.w3.org/2000/svg" xmlns:xlink="http://www.w3.org/1999/xlink" width="111" height="31" viewBox="0 0 111 31"><defs><path id="a" d="M195 2319.94V2289h107.16v30.94z"/><path id="b" d="M287.746 2302.951h-2.857v8.702H282.2v-8.702h-2.582v-2.218h2.582v-2.823l2.688-.7v3.523h2.857zm-12.708-2.218h2.687v10.92h-2.687zm1.343-1.666c-.296 0-.567-.067-.814-.202a1.497 1.497 0 0 1-.582-.557 1.516 1.516 0 0 1-.212-.79c0-.432.153-.791.46-1.078.307-.286.69-.43 1.148-.43.466 0 .847.142 1.143.425.296.283.445.644.445 1.083 0 .445-.15.815-.45 1.109-.3.293-.679.44-1.138.44zm-9.972 10.57c.584 0 1.097-.149 1.537-.446.44-.297.78-.709 1.02-1.236.239-.527.358-1.127.358-1.799 0-.665-.116-1.256-.348-1.772a2.812 2.812 0 0 0-.993-1.21c-.43-.29-.933-.435-1.51-.435-.578 0-1.083.145-1.516.435-.433.29-.768.699-1.004 1.226s-.354 1.14-.354 1.841c0 .686.116 1.286.349 1.799.232.513.56.907.982 1.183.423.276.916.414 1.479.414zm5.56-13.637v15.653h-2.656v-2.048a4.11 4.11 0 0 1-1.397 1.714c-.62.442-1.382.663-2.285.663-.952 0-1.792-.246-2.518-.737-.727-.492-1.286-1.173-1.678-2.043-.391-.87-.587-1.857-.587-2.961 0-1.097.212-2.089.635-2.977.423-.888 1.016-1.586 1.778-2.096s1.63-.764 2.603-.764c1.552 0 2.69.69 3.417 2.07V2296zm-12.92 13.183v2.46h-9.85v-15.208h9.755v2.471h-6.962v3.638h6.507v2.301h-6.507v4.338zm-11.945-6.232h-2.854v8.702h-2.684v-8.702h-2.579v-2.218h2.579v-2.823l2.684-.7v3.523h2.854zm-13.503 9.031c-1.552 0-2.934-.435-4.148-1.305v-2.314c.558.453 1.18.81 1.868 1.072.688.262 1.353.393 1.995.393.592 0 1.056-.113 1.391-.34.335-.226.503-.555.503-.987 0-.297-.096-.55-.286-.758-.19-.21-.508-.38-.952-.515l-1.81-.52c-1.799-.517-2.698-1.525-2.698-3.025 0-.65.173-1.224.519-1.719.345-.495.839-.879 1.48-1.151.643-.273 1.398-.409 2.265-.409 1.348 0 2.564.347 3.65 1.04v2.26a5.422 5.422 0 0 0-1.64-.859 5.865 5.865 0 0 0-1.83-.297c-.578 0-1.014.09-1.307.27a.864.864 0 0 0-.439.78c0 .574.399.963 1.196 1.168l1.767.467c1.884.467 2.825 1.524 2.825 3.173 0 .707-.181 1.332-.545 1.873-.363.541-.873.96-1.529 1.258-.656.297-1.414.445-2.275.445zm-11.237-1.91a2.53 2.53 0 0 0 1.116-.233c.321-.156.57-.372.746-.648.177-.276.265-.583.265-.923 0-.326-.087-.62-.26-.88a1.704 1.704 0 0 0-.735-.611 2.65 2.65 0 0 0-1.11-.218c-.657 0-1.172.158-1.546.473-.374.314-.56.737-.56 1.268 0 .545.183.976.55 1.294.367.319.878.478 1.534.478zm-.195-9.668c1.029 0 1.913.193 2.653.579a3.94 3.94 0 0 1 1.691 1.66c.388.722.581 1.578.581 2.569v6.441h-2.642v-1.369a3.089 3.089 0 0 1-1.22 1.253c-.526.297-1.137.445-1.835.445-.704 0-1.34-.154-1.908-.461a3.363 3.363 0 0 1-1.326-1.274 3.533 3.533 0 0 1-.476-1.82c0-.7.166-1.316.497-1.846a3.333 3.333 0 0 1 1.39-1.237c.595-.293 1.277-.44 2.045-.44.641 0 1.203.113 1.686.34.483.226.865.53 1.147.912v-.669c0-.891-.248-1.579-.745-2.064-.497-.484-1.182-.727-2.056-.727-.655 0-1.27.12-1.845.361a4.872 4.872 0 0 0-1.527 1.008v-2.44a6.606 6.606 0 0 1 3.89-1.22zm-5.667 8.63v2.61H207v-15.209h2.793v12.6z"/><path id="c" d="M301 2319.53V2289h4.06v30.53z"/></defs><use fill="#2a4e68" xlink:href="#a" transform="translate(-195 -2289)"/><use fill="#fff" xlink:href="#b" transform="translate(-195 -2289)"/><use fill="#0899ff" xlink:href="#c" transform="translate(-195 -2289)"/></svg>