<svg xmlns="http://www.w3.org/2000/svg" xmlns:xlink="http://www.w3.org/1999/xlink" width="121" height="34" viewBox="0 0 121 34"><defs><path id="a" d="M259 57.93V24h117.87v33.93z"/><path id="b" d="M360.73 39.674h-3.142v9.544h-2.957v-9.544h-2.84V37.24h2.84v-3.096l2.957-.768v3.864h3.142zm-13.979-2.433h2.957v11.977h-2.957zm1.479-1.827c-.326 0-.625-.074-.897-.221a1.644 1.644 0 0 1-.873-1.479c0-.473.17-.867.507-1.181.337-.314.758-.471 1.263-.471.512 0 .93.155 1.257.465.326.31.488.706.488 1.187 0 .49-.164.895-.494 1.217-.33.322-.747.483-1.251.483zm-10.965 11.593c.644 0 1.209-.163 1.694-.49.485-.325.86-.777 1.123-1.355.264-.578.396-1.236.396-1.973 0-.73-.128-1.377-.384-1.944-.256-.566-.621-1.009-1.094-1.327-.474-.318-1.029-.477-1.665-.477-.636 0-1.193.16-1.67.477-.477.318-.846.766-1.106 1.345-.26.578-.39 1.25-.39 2.019 0 .753.128 1.41.384 1.973.256.562.617.995 1.083 1.298.465.302 1.008.454 1.63.454zm6.12-14.957v17.168h-2.923v-2.246a4.513 4.513 0 0 1-1.538 1.88c-.683.484-1.522.727-2.516.727-1.048 0-1.972-.27-2.772-.809-.8-.54-1.416-1.286-1.847-2.24-.43-.955-.646-2.037-.646-3.248 0-1.203.233-2.291.699-3.265.466-.974 1.118-1.74 1.957-2.299.839-.558 1.794-.838 2.865-.838 1.709 0 2.963.757 3.763 2.27v-7.1zm-14.23 14.468v2.7h-10.827v-16.69h10.722v2.711h-7.652v3.993h7.152v2.525h-7.152v4.76zm-13.13-6.844h-3.14v9.544h-2.952v-9.544h-2.837V37.24h2.837v-3.096l2.953-.768v3.864h3.139zm-14.854 9.905c-1.707 0-3.228-.477-4.562-1.432V45.61a7.424 7.424 0 0 0 2.054 1.175c.757.288 1.488.431 2.194.431.652 0 1.162-.124 1.53-.372.37-.249.554-.61.554-1.083 0-.326-.105-.603-.315-.832-.21-.229-.558-.417-1.047-.565l-1.99-.57c-1.98-.566-2.969-1.672-2.969-3.317 0-.714.19-1.342.57-1.886.381-.543.924-.964 1.63-1.263.706-.298 1.537-.448 2.491-.448 1.482 0 2.82.38 4.016 1.141v2.48a5.97 5.97 0 0 0-1.804-.944 6.47 6.47 0 0 0-2.014-.325c-.636 0-1.115.098-1.437.296a.947.947 0 0 0-.483.856c0 .628.438 1.055 1.315 1.28l1.944.512c2.071.512 3.107 1.672 3.107 3.48 0 .776-.2 1.461-.6 2.055-.399.593-.96 1.053-1.681 1.38-.722.325-1.556.488-2.503.488zm-12.36-2.095c.465 0 .874-.086 1.227-.256.353-.17.627-.408.82-.71a1.83 1.83 0 0 0 .292-1.013c0-.357-.095-.679-.285-.966-.19-.287-.46-.51-.81-.67-.348-.158-.756-.238-1.221-.238-.722 0-1.288.173-1.7.518-.41.345-.617.81-.617 1.391 0 .598.202 1.07.606 1.42.403.35.966.524 1.687.524zm-.215-10.604c1.132 0 2.105.212 2.919.635a4.328 4.328 0 0 1 1.86 1.821c.427.792.64 1.73.64 2.817v7.065h-2.907v-1.501a3.393 3.393 0 0 1-1.343 1.373c-.578.326-1.25.489-2.018.489-.775 0-1.475-.169-2.099-.506a3.695 3.695 0 0 1-1.459-1.397 3.866 3.866 0 0 1-.523-1.996c0-.768.182-1.444.546-2.026a3.666 3.666 0 0 1 1.53-1.356c.654-.322 1.405-.483 2.25-.483.705 0 1.323.125 1.854.373.531.248.952.582 1.262 1v-.732c0-.978-.273-1.733-.82-2.264-.546-.532-1.3-.798-2.262-.798-.72 0-1.397.132-2.029.396a5.36 5.36 0 0 0-1.68 1.106v-2.677a7.288 7.288 0 0 1 4.28-1.339zm-6.234 9.475v2.863H271.91v-16.69h3.073v13.827z"/><path id="c" d="M375.54 57.49V24H380v33.49z"/></defs><use fill="#e6f5ff" xlink:href="#a" transform="translate(-259 -24)"/><use fill="#090909" xlink:href="#b" transform="translate(-259 -24)"/><use fill="#0899ff" xlink:href="#c" transform="translate(-259 -24)"/></svg>