<?xml version="1.0" encoding="UTF-8" standalone="no"?>
<!-- Created with Inkscape (http://www.inkscape.org/) -->

<svg
   xmlns:dc="http://purl.org/dc/elements/1.1/"
   xmlns:cc="http://creativecommons.org/ns#"
   xmlns:rdf="http://www.w3.org/1999/02/22-rdf-syntax-ns#"
   xmlns:svg="http://www.w3.org/2000/svg"
   xmlns="http://www.w3.org/2000/svg"
   xmlns:sodipodi="http://sodipodi.sourceforge.net/DTD/sodipodi-0.dtd"
   xmlns:inkscape="http://www.inkscape.org/namespaces/inkscape"
   width="600"
   height="386.91461"
   id="svg24197"
   version="1.1"
   inkscape:version="0.48.2 r9819"
   sodipodi:docname="Nouveau document 26">
  <defs
     id="defs24199" />
  <sodipodi:namedview
     id="base"
     pagecolor="#ffffff"
     bordercolor="#666666"
     borderopacity="1.0"
     inkscape:pageopacity="0.0"
     inkscape:pageshadow="2"
     inkscape:zoom="0.49497475"
     inkscape:cx="-121.23913"
     inkscape:cy="12.16219"
     inkscape:document-units="px"
     inkscape:current-layer="layer1"
     showgrid="false"
     fit-margin-top="5"
     fit-margin-right="5"
     fit-margin-bottom="5"
     fit-margin-left="5"
     inkscape:window-width="1366"
     inkscape:window-height="706"
     inkscape:window-x="-8"
     inkscape:window-y="-8"
     inkscape:window-maximized="1" />
  <metadata
     id="metadata24202">
    <rdf:RDF>
      <cc:Work
         rdf:about="">
        <dc:format>image/svg+xml</dc:format>
        <dc:type
           rdf:resource="http://purl.org/dc/dcmitype/StillImage" />
        <dc:title></dc:title>
      </cc:Work>
    </rdf:RDF>
  </metadata>
  <g
     inkscape:label="Calque 1"
     inkscape:groupmode="layer"
     id="layer1"
     transform="translate(66.185971,-754.8752)">
    <path
       style="fill:#000000;fill-opacity:1;fill-rule:nonzero;stroke:none"
       d="M 273.2203,932.08453 C 121.19231,931.78676 -46.468478,1122.0485 -46.468478,1122.0485 l 112.070357,0.2758 c 40.339181,-60.3775 94.599001,-124.67509 143.788851,-158.07879 18.71762,-12.70799 36.60812,-20.29696 52.8007,-20.26555 58.73643,0.105 -3.99796,104.08484 -3.99796,104.08484 l 66.72463,0.1377 c 0,0 50.32856,-115.91746 -51.6978,-116.11818 z"
       id="path23636"
       inkscape:connector-curvature="0"
       sodipodi:nodetypes="sccccccs" />
    <path
       id="path23640"
       style="fill:#000000;fill-opacity:1;fill-rule:nonzero;stroke:none"
       d="m 56.987232,850.96277 c 0.769815,13.34272 2.492524,21.3657 4.462279,26.96174 53.145329,12.19404 143.275999,24.98642 223.813729,21.87355 80.53058,-3.11235 151.90557,-10.24802 242.36323,-37.89629 -182.39928,25.07302 -393.11512,2.39379 -468.210153,-38.12516 -1.599185,5.55912 -3.115081,15.33234 -2.429085,27.18616"
       inkscape:connector-curvature="0"
       sodipodi:nodetypes="ccsccc" />
    <path
       id="path23642"
       style="fill:#bd0013;fill-opacity:1;fill-rule:nonzero;stroke:none"
       d="m 214.48717,813.98355 c 37.34264,17.58275 122.25167,25.82683 176.17401,10.78786 -49.20366,-5.47525 -197.7156,-28.00833 -192.95443,-61.40652 -10.79894,28.69217 -1.86388,41.84961 16.78042,50.61866"
       inkscape:connector-curvature="0" />
    <path
       inkscape:connector-curvature="0"
       style="fill:#000000;fill-opacity:1;fill-rule:nonzero;stroke:none"
       d="m 193.26074,1093.9162 0,33.3623 6.3416,0 0.13764,-27.5721 5.92802,0 c 1.95873,0 3.17521,1.2434 3.1708,3.4465 l 0,24.1256 6.47946,0 0,-27.5721 6.06588,0 c 1.95542,0 3.03624,1.3824 3.03293,3.5843 l 0,23.9878 6.3416,0.1377 0.13764,-24.1257 c 0.15485,-7.1015 -3.43496,-9.3662 -8.54736,-9.3745 l -29.08865,0 z m 257.24832,0.4134 0,6.6173 6.47946,0 0,-6.6173 -6.47946,0 z m -336.79401,0.8271 -0.13764,23.2985 c -0.004,2.4341 0.12176,3.3065 0.55144,4.5495 0.33351,0.9054 0.84811,1.7216 1.51647,2.3436 1.23686,1.2402 2.9789,1.7867 5.65229,1.7921 l 5.6523,0 0,-5.2387 -3.58438,0 c -1.33944,0 -2.23335,-0.3326 -2.75722,-1.1029 -0.43277,-0.622 -0.55476,-1.3378 -0.55144,-3.7222 l 0,-21.9199 -6.34161,0 z m 290.88635,0.5515 0,7.5823 -4.13582,0 0,5.2387 4.13582,0 0,10.0639 c 0,2.5504 0.12617,3.5171 0.55144,4.8251 0.7985,2.2907 2.38608,4.2627 7.03091,4.2737 l 4.68726,0 0,-5.2387 -2.48149,0 c -1.33948,0 -2.37509,-0.2952 -2.89508,-1.1029 -0.43277,-0.6496 -0.55696,-1.4955 -0.55144,-3.998 l 0,-8.8231 5.92801,0 0,-5.2387 -5.92801,0 0,-7.5823 -6.3416,0 z m -156.74776,6.893 c -7.40205,-0.013 -12.25307,4.9972 -12.26962,12.4075 -0.0133,8.1156 4.3961,12.6667 12.13175,12.6832 7.6375,0.018 12.39093,-4.6211 12.40748,-12.1317 0.0176,-8.1123 -4.48381,-12.9424 -12.26961,-12.959 z m -106.98001,0.1377 c -3.20336,0 -5.30435,0.5955 -7.0309,1.7922 -2.81677,1.9504 -4.5439,5.8971 -4.54941,10.2016 -0.008,4.4601 1.45691,7.9889 4.27369,10.2017 2.09879,1.7106 4.04208,2.1948 7.7202,2.2058 l 9.65026,0 0,-5.1008 -10.06384,0 c -3.48786,0 -4.56979,-1.4933 -5.10085,-4.5495 l 14.61325,0.1377 0,-5.2387 -14.61325,0 c 0.54535,-3.0479 1.75139,-4.4171 5.23871,-4.4115 l 9.92598,0 0,-5.1009 -10.06384,-0.1376 z m 23.02276,0.1376 c -4.5356,-0.01 -8.26062,2.5013 -8.27165,7.0309 -0.008,5.9247 4.06854,7.5769 8.13379,7.5823 0.756,0 4.35587,0.1364 5.10085,0.1377 1.68463,0 3.03624,0.483 3.03294,2.2058 -0.004,1.6879 -1.40455,2.2101 -3.03294,2.2057 -0.8018,0 -12.54534,0 -12.54534,0 l 0,5.1009 c 0,0 11.6509,0.1345 13.51036,0.1376 4.81022,0.01 8.26063,-2.1815 8.27165,-7.7201 0.008,-4.9339 -3.67481,-7.0199 -8.13378,-7.031 -0.7246,0 -4.21634,0 -4.82513,0 -0.60492,0 -3.31198,0.013 -3.30866,-2.3436 0.005,-2.3585 2.76383,-2.069 3.30866,-2.0679 0.54151,0 11.44245,0 11.44245,0 l 0,-5.2388 -12.6832,0 z m 100.6384,0.1376 0,15.0269 c -0.008,6.1867 2.32542,9.2438 7.58235,9.3745 0.42528,0 14.33753,0 14.33753,0 l 0,-24.4014 -6.3416,0 0,19.1627 -6.06588,0 c -1.95541,0 -3.03845,-1.2447 -3.03293,-3.4465 l 0,-15.7162 -6.47947,0 z m 33.91377,0.1377 c -3.73759,0.5486 -6.61251,3.067 -6.61732,7.0309 -0.0133,5.9242 4.20751,7.5769 8.27166,7.5823 0.75604,0 4.21685,0 4.96298,0 1.6808,0 3.03683,0.6216 3.03294,2.3437 -0.004,1.6896 -1.40507,2.2085 -3.03294,2.2058 -0.80179,0 -12.54534,0 -12.54534,0 l 0,5.1008 c 0,0 11.78766,0.1364 13.64823,0.1377 4.80691,0.01 8.26062,-2.1838 8.27165,-7.7203 0.008,-4.9337 -3.81321,-7.0199 -8.27165,-7.0309 -0.72848,0 -4.22022,0 -4.82513,0 -0.60438,0 -3.31418,0.013 -3.30866,-2.3436 0.004,-2.3613 2.76331,-2.2069 3.30866,-2.2058 0.54535,0 11.44245,0.1377 11.44245,0.1377 l 0,-5.2388 -12.68319,0 c -0.56662,0 -1.12041,-0.078 -1.65434,0 z m 31.98371,0 c -4.34647,0 -6.03389,0.4142 -7.99593,2.0679 -2.72192,2.1936 -4.26816,5.9733 -4.27368,10.4774 -0.0176,7.2593 4.28913,11.8395 11.16673,11.8561 l 6.20373,0 -0.13764,9.2366 6.47946,0 0,-33.638 -11.44244,0 z m 17.64619,0 0,15.0268 c -0.0133,6.1883 2.32546,9.2428 7.58234,9.3746 0.43278,0 14.19967,0 14.19967,0 l 0.13764,-24.2636 -6.47946,0 0,19.1627 -6.06588,0 c -1.9626,0 -3.03734,-1.3797 -3.03294,-3.5844 l 0,-15.7161 -6.34159,0 z m 38.32531,0.1376 c -3.2,-0.01 -5.3115,0.4539 -7.0309,1.6543 -2.8267,1.9467 -4.68175,5.8956 -4.68727,10.2017 -0.008,4.459 1.46406,7.9905 4.27369,10.2018 2.09879,1.7116 4.04208,2.338 7.7202,2.3436 l 9.65026,0 0,-5.2387 -9.92598,0 c -3.48512,-0.01 -4.70822,-1.3522 -5.2387,-4.4116 l 14.61324,0 0,-5.2387 -14.61324,0 c 0.54093,-3.0506 1.75027,-4.2792 5.2387,-4.2737 l 10.06384,0 0,-5.2387 -10.06384,0 z m 36.53312,0 0,5.2387 10.06384,0 c 3.67813,0 4.82902,0.9944 4.82513,3.9981 l 0,0.4132 -7.0309,0 c -3.68144,-0.01 -5.51059,0.4262 -6.75518,1.3787 -1.7194,1.2986 -2.7539,3.6516 -2.75722,6.2037 -0.008,3.3076 1.78504,6.0493 4.41155,6.7552 1.28707,0.3573 2.21018,0.4081 5.79016,0.4133 l 12.68319,0.1377 0,-13.7861 c 0.19278,-6.1133 -1.94712,-10.4956 -8.54737,-10.6153 -0.66777,0 -1.52582,0 -2.61936,0 l -10.06384,-0.1377 z m 27.57217,0.1377 0,24.4013 6.3416,0 0,-24.4013 -6.3416,0 z m 21.36843,0 c -3.1052,0.044 -5.08378,0.9573 -6.61732,2.7572 -0.66447,0.8514 -1.18282,1.7409 -1.51647,2.895 -0.4363,1.4503 -0.54814,2.3079 -0.55144,4.9631 l 0,13.786 6.3416,0 0.13764,-15.1646 c 0.008,-3.0027 1.147,-4.0091 4.82512,-3.9981 l 4.13583,0 0,-5.2386 -4.13583,0 c -1.10068,0 -1.94769,0 -2.61935,0 z m 19.7141,0 c -3.19948,0 -5.31151,0.5928 -7.03091,1.7922 -2.82396,1.9477 -4.67624,5.8954 -4.68726,10.2017 -0.004,4.4583 1.46353,7.8537 4.27368,10.0638 2.0988,1.71 4.04208,2.3381 7.72021,2.3436 l 9.65026,0 0,-5.1008 -9.92598,-0.1377 c -3.48402,-0.01 -4.70435,-1.3538 -5.23871,-4.4115 l 14.61324,0.1377 0,-5.2387 -14.61324,0 c 0.54208,-3.049 1.75081,-4.4171 5.23871,-4.4117 l 10.06384,0 0,-5.2386 -10.06384,0 z m 22.8849,0.1376 c -4.53618,-0.01 -8.26614,2.5036 -8.27165,7.0309 -0.008,5.9264 4.06855,7.5713 8.13379,7.5823 0.75269,0 4.35587,0.1368 5.10084,0.1377 1.68411,0 3.03626,0.483 3.03294,2.2058 -0.008,1.6907 -1.40124,2.2084 -3.03294,2.2057 -0.80122,0 -12.54533,0 -12.54533,0 l 0,5.1009 c 0,0 11.79154,0.1323 13.64822,0.1376 4.81022,0.01 8.26062,-2.182 8.27165,-7.7201 0.008,-4.9355 -3.81651,-7.0199 -8.27165,-7.031 -0.72407,0 -4.21633,0 -4.82513,0 -0.60826,0 -3.31417,0.018 -3.30866,-2.3436 0.004,-2.3585 2.7611,-2.2058 3.30866,-2.2058 0.5421,0 11.44245,0.1376 11.44245,0.1376 l 0,-5.2387 -12.68319,0 z m -266.62285,4.1359 c 3.82538,0.01 5.80118,2.5322 5.79015,7.4444 -0.008,4.9553 -1.87932,7.45 -5.65229,7.4445 -3.8684,0 -5.98427,-2.5498 -5.92802,-7.3066 0.0635,-5.0561 1.92895,-7.5879 5.79016,-7.5823 z m 82.99222,0.6892 4.68726,0 0,13.924 -4.41154,0 c -4.15236,-0.01 -6.34711,-2.4749 -6.3416,-7.0309 0.008,-4.5048 2.10321,-6.9041 6.06588,-6.8931 z m 99.2598,9.7881 1.10289,0 6.61731,0 0,4.4116 -6.61731,0 c -2.52839,0 -3.44653,-0.6043 -3.44653,-2.2057 0.004,-1.4013 0.86688,-2.2086 2.34364,-2.2059 z"
       id="path23644" />
    <path
       id="path23638"
       style="fill:#bd0013;fill-opacity:1;fill-rule:nonzero;stroke:none"
       d="M 273.23022,929.93113 C 121.20223,929.63335 -61.185971,1126.7854 -61.185971,1126.7854 l 126.724413,0.247 c 40.339188,-60.3775 94.634868,-129.34984 143.824708,-162.75355 21.6221,-15.72989 42.18542,-25.35204 59.85477,-25.31618 95.94011,0.18705 55.69908,109.30433 55.69908,109.30433 0,0 50.33959,-118.13514 -51.68678,-118.33587"
       inkscape:connector-curvature="0" />
    <path
       id="path23640-7"
       style="fill:#000000;fill-opacity:1;fill-rule:nonzero;stroke:none"
       d="m 383.33361,802.86976 c 25.21198,-18.96303 22.52204,-33.97222 1.63173,-40.59394 -19.38932,-6.15522 -62.66827,0.9187 -84.24073,5.65891 64.91869,0.76923 98.93119,21.90112 82.609,34.93503"
       inkscape:connector-curvature="0"
       sodipodi:nodetypes="cccc" />
  </g>
</svg>
