<?xml version="1.0" encoding="utf-8"?>
<svg version="1.1" id="Layer_1" xmlns="http://www.w3.org/2000/svg" xmlns:xlink="http://www.w3.org/1999/xlink" x="0px" y="0px" viewBox="0 0 187 34" style="enable-background:new 0 0 187 34;" xml:space="preserve">
<title>Primagaz</title>
<path fill="#DF2B2A" d="M27,17c0-3.1-1.5-5.9-3.7-7.8c-0.3-0.3-1-0.9-1-2V0.7C21,0.4,19.8,0.1,18.5,0v7.1v2.1
	c0,1.8,0.9,2.6,1.3,2.8c1.7,1,2.9,2.8,2.9,4.9c0,3.1-2.5,5.7-5.7,5.7s-5.7-2.5-5.7-5.7c0-2.1,1.2-4,2.9-4.9
	c0.4-0.2,1.4-1.1,1.4-2.8V7.1V0c-1.3,0.1-2.6,0.3-3.7,0.7v6.4c0,1.2-0.7,1.8-1,2C8.6,11,7.1,13.8,7.1,17c0,5.5,4.4,9.9,9.9,9.9
	S27,22.5,27,17 M34,17c0-6.5-3.6-12.2-9-15V7c2.9,2.3,4.8,5.9,4.8,10c0,7.1-5.7,12.8-12.7,12.8C10,29.7,4.3,24,4.3,17
	C4.3,13,6.1,9.4,9,7V1.9c-5.4,2.9-9,8.5-9,15c0,9.4,7.6,17,17,17C26.4,34,34,26.4,34,17"/>
<path d="M141.7,7.9c-5.5,0-9.3,4.2-9.3,9.1c0,4.9,3.8,9.1,9.3,9.1c5.9,0,9.3-4,9.3-9.1c0-0.8-0.1-1.4-0.1-1.4H142
	V19h4.6c-0.5,2.2-2.3,3.5-4.9,3.5c-3,0-5.2-2.4-5.2-5.5c0-3,2.2-5.5,5.2-5.5c2.1,0,3.3,0.5,4.7,1.7l2.7-2.7
	C147.2,8.8,145.1,7.9,141.7,7.9L141.7,7.9z M158.2,19l2.7-6.3l2.7,6.3H158.2z M119.3,19l2.7-6.3l2.7,6.3H119.3z M52.6,8.2h-7.4
	v17.7h4v-5.3v-3.5v-5.3h3.1c2,0,3.2,1,3.2,2.7c0,1.7-1.2,2.7-3.2,2.7h-0.9v3.6h1.2c4.3,0,6.9-2.6,6.9-6.3S56.9,8.2,52.6,8.2
	L52.6,8.2z M70.7,8.2h-8.2v17.7h4V11.7h4c1.9,0,3.1,0.9,3.1,2.6c0,1.7-1.2,2.6-3.1,2.6h-1.8v3.6l1.9,1.9c3.2,3.3,4.5,3.6,6.6,3.6
	c0.7,0,1-0.1,1-0.1v-3.3c0,0-0.2,0-0.3,0c-1.2,0-2.3-0.6-4-2.2l-0.7-0.7c2-0.3,4.5-2.2,4.5-5.5C77.5,10.2,74.5,8.2,70.7,8.2
	L70.7,8.2z M82.3,25.8h4V8.2h-4V25.8z M109.9,8.2h-4.3l-4.9,9.3l-4.9-9.3h-4.3v17.7h3.9V15l4.1,7.3h2.4l4.1-7.3v10.9h3.9V8.2z
	 M186.8,8.2h-14.7v3.5h9.4L172,22.9v3h14.8v-3.5h-9.6l9.6-11.2V8.2z M123.8,8h-3.8l-7.7,17.8h4.1l1.4-3.4h8.1l1.4,3.4h4.1L123.8,8
	z M162.8,8H159l-7.7,17.8h4.1l1.4-3.4h8.1l1.4,3.4h4.1L162.8,8z"/>
</svg>